<svg xmlns="http://www.w3.org/2000/svg" xmlns:xlink="http://www.w3.org/1999/xlink" width="577" zoomAndPan="magnify" viewBox="0 0 432.75 116.249996" height="155" preserveAspectRatio="xMidYMid meet" version="1.0"><defs><g/><clipPath id="6fa7bf8e78"><path d="M 1.261719 23 L 66 23 L 66 90 L 1.261719 90 Z M 1.261719 23 " clip-rule="nonzero"/></clipPath><clipPath id="9862e61342"><path d="M 408 38 L 431.238281 38 L 431.238281 90 L 408 90 Z M 408 38 " clip-rule="nonzero"/></clipPath><clipPath id="6a1a55bfda"><path d="M 85.800781 38.542969 L 140.199219 38.542969 L 140.199219 92.941406 L 85.800781 92.941406 Z M 85.800781 38.542969 " clip-rule="nonzero"/></clipPath><clipPath id="f295ce1871"><path d="M 105 40 L 140.199219 40 L 140.199219 73 L 105 73 Z M 105 40 " clip-rule="nonzero"/></clipPath><clipPath id="9f473c38be"><path d="M 96 38.542969 L 110 38.542969 L 110 48 L 96 48 Z M 96 38.542969 " clip-rule="nonzero"/></clipPath><clipPath id="97765a3186"><path d="M 85.800781 47 L 94 47 L 94 64 L 85.800781 64 Z M 85.800781 47 " clip-rule="nonzero"/></clipPath><clipPath id="b53e77eca8"><path d="M 262 78 L 285 78 L 285 92.941406 L 262 92.941406 Z M 262 78 " clip-rule="nonzero"/></clipPath><clipPath id="69106b44d4"><path d="M 229.304688 40 L 295 40 L 295 87 L 229.304688 87 Z M 229.304688 40 " clip-rule="nonzero"/></clipPath></defs><g clip-path="url(#6fa7bf8e78)"><g fill="#ffffff" fill-opacity="1"><g transform="translate(-2.420215, 88.392996)"><g><path d="M 38.5 1.375 C 33.976562 1.375 29.671875 0.570312 25.578125 -1.03125 C 21.492188 -2.632812 17.863281 -4.875 14.6875 -7.75 C 11.507812 -10.632812 9.003906 -14.023438 7.171875 -17.921875 C 5.335938 -21.816406 4.421875 -26.023438 4.421875 -30.546875 C 4.421875 -35.390625 5.367188 -39.90625 7.265625 -44.09375 C 9.160156 -48.289062 11.78125 -51.957031 15.125 -55.09375 C 18.46875 -58.238281 22.316406 -60.695312 26.671875 -62.46875 C 31.023438 -64.238281 35.65625 -65.125 40.5625 -65.125 C 41.675781 -65.125 43.195312 -65.007812 45.125 -64.78125 C 47.0625 -64.550781 49.0625 -64.269531 51.125 -63.9375 C 53.1875 -63.613281 55.050781 -63.269531 56.71875 -62.90625 C 58.382812 -62.550781 59.546875 -62.207031 60.203125 -61.875 C 60.535156 -61.75 60.75 -61.601562 60.84375 -61.4375 C 60.945312 -61.269531 61.03125 -61.023438 61.09375 -60.703125 C 61.351562 -58.796875 61.582031 -56.910156 61.78125 -55.046875 C 61.976562 -53.179688 62.078125 -51.59375 62.078125 -50.28125 C 62.078125 -49.820312 61.925781 -49.378906 61.625 -48.953125 C 61.332031 -48.535156 60.988281 -48.328125 60.59375 -48.328125 C 59.945312 -48.328125 59.457031 -48.617188 59.125 -49.203125 C 58.800781 -49.796875 58.539062 -50.382812 58.34375 -50.96875 C 57.945312 -52.019531 57.535156 -52.921875 57.109375 -53.671875 C 56.679688 -54.429688 56.078125 -55.269531 55.296875 -56.1875 C 54.898438 -56.707031 54.0625 -57.375 52.78125 -58.1875 C 51.507812 -59.007812 49.789062 -59.75 47.625 -60.40625 C 45.46875 -61.0625 42.820312 -61.390625 39.6875 -61.390625 C 35.882812 -61.390625 32.410156 -60.585938 29.265625 -58.984375 C 26.117188 -57.378906 23.414062 -55.179688 21.15625 -52.390625 C 18.90625 -49.609375 17.171875 -46.453125 15.953125 -42.921875 C 14.742188 -39.390625 14.140625 -35.691406 14.140625 -31.828125 C 14.140625 -27.171875 14.859375 -23.007812 16.296875 -19.34375 C 17.742188 -15.675781 19.675781 -12.566406 22.09375 -10.015625 C 24.519531 -7.460938 27.269531 -5.53125 30.34375 -4.21875 C 33.425781 -2.914062 36.601562 -2.265625 39.875 -2.265625 C 43.675781 -2.265625 46.472656 -2.722656 48.265625 -3.640625 C 50.066406 -4.554688 51.265625 -5.304688 51.859375 -5.890625 C 52.578125 -6.609375 53.25 -7.625 53.875 -8.9375 C 54.5 -10.25 54.8125 -11.753906 54.8125 -13.453125 C 54.8125 -14.046875 54.828125 -14.664062 54.859375 -15.3125 C 54.890625 -15.96875 54.921875 -16.625 54.953125 -17.28125 C 54.984375 -17.9375 55 -18.5625 55 -19.15625 C 55 -19.875 54.96875 -20.476562 54.90625 -20.96875 C 54.84375 -21.457031 54.710938 -21.832031 54.515625 -22.09375 C 53.984375 -22.8125 53.0625 -23.398438 51.75 -23.859375 C 50.445312 -24.316406 49.140625 -24.644531 47.828125 -24.84375 C 46.523438 -25.039062 45.546875 -25.140625 44.890625 -25.140625 C 44.628906 -25.140625 44.234375 -25.300781 43.703125 -25.625 C 43.179688 -25.957031 42.921875 -26.351562 42.921875 -26.8125 C 42.921875 -27.332031 43.179688 -27.738281 43.703125 -28.03125 C 44.234375 -28.332031 44.628906 -28.484375 44.890625 -28.484375 C 46.523438 -28.484375 47.929688 -28.445312 49.109375 -28.375 C 50.285156 -28.3125 51.492188 -28.25 52.734375 -28.1875 C 53.984375 -28.125 55.492188 -28.09375 57.265625 -28.09375 C 58.960938 -28.09375 60.398438 -28.15625 61.578125 -28.28125 C 62.753906 -28.414062 64.226562 -28.484375 66 -28.484375 C 66.257812 -28.484375 66.664062 -28.382812 67.21875 -28.1875 C 67.78125 -27.988281 68.0625 -27.5625 68.0625 -26.90625 C 68.0625 -26.445312 67.78125 -26.054688 67.21875 -25.734375 C 66.664062 -25.410156 66.257812 -25.210938 66 -25.140625 C 64.5625 -24.742188 63.5625 -24.171875 63 -23.421875 C 62.445312 -22.671875 62.070312 -21.640625 61.875 -20.328125 C 61.675781 -18.890625 61.546875 -17.613281 61.484375 -16.5 C 61.421875 -15.382812 61.390625 -14.207031 61.390625 -12.96875 L 61.390625 -10.3125 C 61.390625 -9.988281 61.453125 -9.726562 61.578125 -9.53125 C 61.710938 -9.332031 61.84375 -9.066406 61.96875 -8.734375 C 62.164062 -8.410156 62.425781 -8.117188 62.75 -7.859375 C 63.082031 -7.597656 63.25 -7.335938 63.25 -7.078125 C 63.25 -6.804688 63.195312 -6.457031 63.09375 -6.03125 C 63 -5.613281 62.59375 -5.335938 61.875 -5.203125 C 61.414062 -5.140625 60.515625 -4.765625 59.171875 -4.078125 C 57.828125 -3.390625 56.140625 -2.617188 54.109375 -1.765625 C 52.085938 -0.910156 49.765625 -0.175781 47.140625 0.4375 C 44.523438 1.0625 41.644531 1.375 38.5 1.375 Z M 38.5 1.375 "/></g></g></g></g><g fill="#ffffff" fill-opacity="1"><g transform="translate(61.812133, 88.392996)"><g><path d="M 3.828125 0.296875 C 3.503906 0.296875 3.09375 0.242188 2.59375 0.140625 C 2.101562 0.046875 1.859375 -0.195312 1.859375 -0.59375 C 1.859375 -1.113281 2.101562 -1.488281 2.59375 -1.71875 C 3.09375 -1.945312 3.601562 -2.160156 4.125 -2.359375 C 5.101562 -2.679688 6.050781 -3.054688 6.96875 -3.484375 C 7.882812 -3.910156 8.34375 -4.78125 8.34375 -6.09375 L 8.34375 -55.59375 C 8.34375 -57.488281 8 -59.070312 7.3125 -60.34375 C 6.625 -61.625 5.460938 -62.429688 3.828125 -62.765625 C 3.304688 -62.890625 3.046875 -63.3125 3.046875 -64.03125 C 3.046875 -64.6875 3.273438 -65.082031 3.734375 -65.21875 C 5.429688 -65.613281 6.898438 -66.019531 8.140625 -66.4375 C 9.390625 -66.863281 10.554688 -67.304688 11.640625 -67.765625 C 12.722656 -68.222656 13.785156 -68.648438 14.828125 -69.046875 C 15.085938 -69.179688 15.285156 -69.25 15.421875 -69.25 C 15.546875 -69.25 15.65625 -69.164062 15.75 -69 C 15.851562 -68.832031 15.90625 -68.6875 15.90625 -68.5625 C 15.90625 -67.96875 15.789062 -66.703125 15.5625 -64.765625 C 15.332031 -62.835938 15.21875 -59.648438 15.21875 -55.203125 L 15.21875 -6.09375 C 15.21875 -4.78125 15.675781 -3.910156 16.59375 -3.484375 C 17.507812 -3.054688 18.460938 -2.679688 19.453125 -2.359375 C 19.972656 -2.160156 20.476562 -1.945312 20.96875 -1.71875 C 21.457031 -1.488281 21.703125 -1.113281 21.703125 -0.59375 C 21.703125 -0.195312 21.457031 0.046875 20.96875 0.140625 C 20.476562 0.242188 20.066406 0.296875 19.734375 0.296875 C 18.492188 0.296875 17.492188 0.242188 16.734375 0.140625 C 15.984375 0.046875 15.265625 -0.03125 14.578125 -0.09375 C 13.890625 -0.164062 12.957031 -0.203125 11.78125 -0.203125 C 10.664062 -0.203125 9.75 -0.164062 9.03125 -0.09375 C 8.3125 -0.03125 7.59375 0.046875 6.875 0.140625 C 6.15625 0.242188 5.140625 0.296875 3.828125 0.296875 Z M 3.828125 0.296875 "/></g></g></g><g fill="#ffffff" fill-opacity="1"><g transform="translate(78.050406, 88.392996)"><g/></g></g><g fill="#ffffff" fill-opacity="1"><g transform="translate(90.327286, 88.392996)"><g/></g></g><g fill="#ffffff" fill-opacity="1"><g transform="translate(102.604166, 88.392996)"><g/></g></g><g fill="#ffffff" fill-opacity="1"><g transform="translate(114.881044, 88.392996)"><g/></g></g><g fill="#ffffff" fill-opacity="1"><g transform="translate(127.157926, 88.392996)"><g/></g></g><g fill="#ffffff" fill-opacity="1"><g transform="translate(139.530344, 88.392996)"><g><path d="M 25.4375 1.375 C 24 1.375 22.554688 1.242188 21.109375 0.984375 C 19.671875 0.722656 18.296875 0.425781 16.984375 0.09375 C 15.546875 -0.289062 14.285156 -0.644531 13.203125 -0.96875 C 12.128906 -1.300781 11.425781 -1.46875 11.09375 -1.46875 C 10.707031 -1.46875 10.332031 -1.335938 9.96875 -1.078125 C 9.601562 -0.816406 9.257812 -0.523438 8.9375 -0.203125 C 8.613281 0.128906 8.316406 0.296875 8.046875 0.296875 C 7.785156 0.296875 7.488281 0.179688 7.15625 -0.046875 C 6.832031 -0.273438 6.671875 -0.554688 6.671875 -0.890625 C 6.671875 -1.472656 6.785156 -2.484375 7.015625 -3.921875 C 7.242188 -5.367188 7.359375 -6.710938 7.359375 -7.953125 L 7.359375 -55.59375 C 7.359375 -57.289062 6.929688 -58.757812 6.078125 -60 C 5.234375 -61.25 4.15625 -62.171875 2.84375 -62.765625 C 2.582031 -62.890625 2.304688 -63.066406 2.015625 -63.296875 C 1.722656 -63.523438 1.578125 -63.835938 1.578125 -64.234375 C 1.578125 -64.554688 1.707031 -64.785156 1.96875 -64.921875 C 2.226562 -65.054688 2.488281 -65.15625 2.75 -65.21875 C 3.601562 -65.414062 4.765625 -65.773438 6.234375 -66.296875 C 7.710938 -66.816406 9.101562 -67.335938 10.40625 -67.859375 C 11.71875 -68.390625 12.601562 -68.753906 13.0625 -68.953125 C 13.457031 -69.148438 13.753906 -69.25 13.953125 -69.25 C 14.078125 -69.25 14.203125 -69.179688 14.328125 -69.046875 C 14.460938 -68.910156 14.53125 -68.75 14.53125 -68.5625 C 14.53125 -68.289062 14.476562 -67.191406 14.375 -65.265625 C 14.28125 -63.335938 14.234375 -61 14.234375 -58.25 L 14.234375 -38.109375 C 14.234375 -36.867188 14.300781 -36.035156 14.4375 -35.609375 C 14.570312 -35.179688 14.800781 -34.9375 15.125 -34.875 C 17.15625 -36.570312 19.507812 -37.957031 22.1875 -39.03125 C 24.875 -40.113281 27.300781 -40.65625 29.46875 -40.65625 C 32.800781 -40.65625 35.796875 -39.804688 38.453125 -38.109375 C 41.109375 -36.410156 43.21875 -34.101562 44.78125 -31.1875 C 46.351562 -28.269531 47.140625 -24.976562 47.140625 -21.3125 C 47.140625 -16.863281 46.222656 -12.921875 44.390625 -9.484375 C 42.554688 -6.046875 40.019531 -3.375 36.78125 -1.46875 C 33.539062 0.425781 29.757812 1.375 25.4375 1.375 Z M 27.703125 -1.671875 C 30.191406 -1.671875 32.332031 -2.4375 34.125 -3.96875 C 35.925781 -5.507812 37.316406 -7.601562 38.296875 -10.25 C 39.285156 -12.90625 39.78125 -15.875 39.78125 -19.15625 C 39.78125 -21.707031 39.304688 -24.320312 38.359375 -27 C 37.410156 -29.6875 35.9375 -31.945312 33.9375 -33.78125 C 31.9375 -35.613281 29.363281 -36.53125 26.21875 -36.53125 C 23.601562 -36.53125 21.3125 -36.101562 19.34375 -35.25 C 17.382812 -34.40625 15.679688 -33.328125 14.234375 -32.015625 L 14.234375 -12.96875 C 14.234375 -10.675781 14.875 -8.675781 16.15625 -6.96875 C 17.4375 -5.269531 19.109375 -3.960938 21.171875 -3.046875 C 23.234375 -2.128906 25.410156 -1.671875 27.703125 -1.671875 Z M 27.703125 -1.671875 "/></g></g></g><g fill="#ffffff" fill-opacity="1"><g transform="translate(182.744827, 88.392996)"><g><path d="M 20.921875 1.46875 C 17.316406 1.46875 14.171875 0.585938 11.484375 -1.171875 C 8.804688 -2.941406 6.710938 -5.445312 5.203125 -8.6875 C 3.703125 -11.925781 2.953125 -15.675781 2.953125 -19.9375 C 2.953125 -23.738281 3.816406 -27.191406 5.546875 -30.296875 C 7.285156 -33.410156 9.59375 -35.914062 12.46875 -37.8125 C 15.351562 -39.707031 18.5 -40.65625 21.90625 -40.65625 C 24.519531 -40.65625 26.84375 -40.128906 28.875 -39.078125 C 30.90625 -38.035156 32.492188 -36.582031 33.640625 -34.71875 C 34.785156 -32.851562 35.359375 -30.707031 35.359375 -28.28125 C 35.359375 -26.257812 34.375 -25.25 32.40625 -25.25 L 11.6875 -25.25 C 10.769531 -25.25 10.128906 -25 9.765625 -24.5 C 9.410156 -24.007812 9.234375 -23.046875 9.234375 -21.609375 C 9.234375 -18.460938 9.921875 -15.597656 11.296875 -13.015625 C 12.671875 -10.429688 14.503906 -8.367188 16.796875 -6.828125 C 19.085938 -5.285156 21.609375 -4.515625 24.359375 -4.515625 C 26.328125 -4.515625 28.113281 -4.890625 29.71875 -5.640625 C 31.320312 -6.398438 32.742188 -7.5 33.984375 -8.9375 C 34.242188 -9.257812 34.4375 -9.46875 34.5625 -9.5625 C 34.695312 -9.664062 34.863281 -9.71875 35.0625 -9.71875 C 35.582031 -9.71875 35.84375 -9.390625 35.84375 -8.734375 C 35.84375 -7.492188 35.253906 -6.117188 34.078125 -4.609375 C 33.097656 -3.367188 31.921875 -2.289062 30.546875 -1.375 C 29.171875 -0.457031 27.664062 0.242188 26.03125 0.734375 C 24.394531 1.222656 22.691406 1.46875 20.921875 1.46875 Z M 11.890625 -28.28125 L 20.828125 -28.28125 C 22.390625 -28.28125 23.726562 -28.3125 24.84375 -28.375 C 25.957031 -28.445312 27.039062 -28.582031 28.09375 -28.78125 C 28.414062 -28.84375 28.625 -29.050781 28.71875 -29.40625 C 28.820312 -29.769531 28.875 -30.28125 28.875 -30.9375 C 28.875 -32.832031 28.035156 -34.453125 26.359375 -35.796875 C 24.691406 -37.140625 22.710938 -37.8125 20.421875 -37.8125 C 18.921875 -37.8125 17.414062 -37.367188 15.90625 -36.484375 C 14.40625 -35.597656 13.160156 -34.5 12.171875 -33.1875 C 11.191406 -31.882812 10.703125 -30.578125 10.703125 -29.265625 C 10.703125 -28.609375 11.097656 -28.28125 11.890625 -28.28125 Z M 11.890625 -28.28125 "/></g></g></g><g fill="#ffffff" fill-opacity="1"><g transform="translate(213.76665, 88.392996)"><g/></g></g><g fill="#ffffff" fill-opacity="1"><g transform="translate(226.04353, 88.392996)"><g/></g></g><g fill="#ffffff" fill-opacity="1"><g transform="translate(238.32041, 88.392996)"><g/></g></g><g fill="#ffffff" fill-opacity="1"><g transform="translate(250.597289, 88.392996)"><g/></g></g><g fill="#ffffff" fill-opacity="1"><g transform="translate(262.87417, 88.392996)"><g/></g></g><g fill="#ffffff" fill-opacity="1"><g transform="translate(275.151051, 88.392996)"><g/></g></g><g fill="#ffffff" fill-opacity="1"><g transform="translate(287.523394, 88.392996)"><g><path d="M 20.421875 1.375 C 19.640625 1.375 19.050781 0.898438 18.65625 -0.046875 C 18.269531 -0.992188 18.078125 -2.15625 18.078125 -3.53125 C 18.078125 -4.90625 18.207031 -6.28125 18.46875 -7.65625 C 19.1875 -11.320312 19.90625 -15.171875 20.625 -19.203125 C 21.34375 -23.234375 22.046875 -27.242188 22.734375 -31.234375 C 23.421875 -35.222656 24.023438 -38.953125 24.546875 -42.421875 C 25.078125 -45.898438 25.472656 -48.882812 25.734375 -51.375 C 26.054688 -54.125 26.132812 -56.117188 25.96875 -57.359375 C 25.8125 -58.597656 25.238281 -59.460938 24.25 -59.953125 C 23.269531 -60.453125 21.703125 -60.863281 19.546875 -61.1875 C 18.566406 -61.320312 17.8125 -61.550781 17.28125 -61.875 C 16.757812 -62.207031 16.5 -62.632812 16.5 -63.15625 C 16.5 -63.675781 16.859375 -64.019531 17.578125 -64.1875 C 18.296875 -64.351562 19.148438 -64.4375 20.140625 -64.4375 C 21.441406 -64.4375 22.992188 -64.335938 24.796875 -64.140625 C 26.597656 -63.941406 28.742188 -63.84375 31.234375 -63.84375 C 32.410156 -63.84375 33.570312 -63.859375 34.71875 -63.890625 C 35.863281 -63.921875 36.925781 -63.9375 37.90625 -63.9375 C 38.894531 -63.9375 39.75 -63.9375 40.46875 -63.9375 C 41.25 -63.9375 41.882812 -63.835938 42.375 -63.640625 C 42.875 -63.441406 43.125 -63.148438 43.125 -62.765625 C 43.125 -62.304688 42.695312 -61.910156 41.84375 -61.578125 C 40.988281 -61.253906 40.101562 -61.023438 39.1875 -60.890625 C 37.613281 -60.765625 36.414062 -60.472656 35.59375 -60.015625 C 34.78125 -59.554688 34.175781 -58.785156 33.78125 -57.703125 C 33.394531 -56.617188 33.035156 -55.03125 32.703125 -52.9375 C 31.785156 -46.851562 30.835938 -40.796875 29.859375 -34.765625 C 28.878906 -28.742188 27.894531 -22.625 26.90625 -16.40625 C 26.582031 -14.175781 26.679688 -13.0625 27.203125 -13.0625 C 27.734375 -13.0625 28.914062 -14.109375 30.75 -16.203125 L 57.359375 -47.640625 C 59.191406 -49.734375 60.4375 -51.414062 61.09375 -52.6875 C 61.75 -53.96875 62.078125 -55.066406 62.078125 -55.984375 C 62.078125 -57.554688 61.582031 -58.734375 60.59375 -59.515625 C 59.613281 -60.304688 57.878906 -60.863281 55.390625 -61.1875 C 54.410156 -61.320312 53.675781 -61.566406 53.1875 -61.921875 C 52.695312 -62.285156 52.453125 -62.726562 52.453125 -63.25 C 52.453125 -63.707031 52.84375 -64.019531 53.625 -64.1875 C 54.414062 -64.351562 55.203125 -64.4375 55.984375 -64.4375 C 56.960938 -64.4375 58.222656 -64.382812 59.765625 -64.28125 C 61.304688 -64.1875 62.894531 -64.085938 64.53125 -63.984375 C 66.164062 -63.890625 67.601562 -63.84375 68.84375 -63.84375 C 70.09375 -63.84375 71.273438 -63.890625 72.390625 -63.984375 C 73.503906 -64.085938 74.566406 -64.1875 75.578125 -64.28125 C 76.597656 -64.382812 77.628906 -64.4375 78.671875 -64.4375 C 80.179688 -64.4375 80.9375 -64.007812 80.9375 -63.15625 C 80.9375 -62.695312 80.609375 -62.300781 79.953125 -61.96875 C 79.296875 -61.644531 78.410156 -61.382812 77.296875 -61.1875 C 74.222656 -60.726562 72.175781 -60.007812 71.15625 -59.03125 C 70.144531 -58.050781 69.472656 -56.414062 69.140625 -54.125 L 63.640625 -16.40625 C 63.316406 -14.175781 63.429688 -13.0625 63.984375 -13.0625 C 64.546875 -13.0625 65.675781 -14.140625 67.375 -16.296875 L 92.8125 -48.125 C 95.175781 -51.070312 96.703125 -53.425781 97.390625 -55.1875 C 98.078125 -56.957031 98.125 -58.300781 97.53125 -59.21875 C 96.9375 -60.132812 95.859375 -60.726562 94.296875 -61 C 93.242188 -61.1875 92.566406 -61.410156 92.265625 -61.671875 C 91.972656 -61.941406 91.828125 -62.304688 91.828125 -62.765625 C 91.828125 -63.222656 92.140625 -63.546875 92.765625 -63.734375 C 93.390625 -63.929688 94.09375 -64.03125 94.875 -64.03125 C 95.46875 -64.03125 96.4375 -64.015625 97.78125 -63.984375 C 99.125 -63.953125 100.5625 -63.921875 102.09375 -63.890625 C 103.632812 -63.859375 104.960938 -63.84375 106.078125 -63.84375 C 108.109375 -63.84375 109.726562 -63.941406 110.9375 -64.140625 C 112.144531 -64.335938 113.503906 -64.4375 115.015625 -64.4375 C 115.796875 -64.4375 116.363281 -64.320312 116.71875 -64.09375 C 117.082031 -63.863281 117.265625 -63.550781 117.265625 -63.15625 C 117.265625 -62.695312 116.9375 -62.253906 116.28125 -61.828125 C 115.632812 -61.398438 114.753906 -61.085938 113.640625 -60.890625 C 111.609375 -60.503906 109.675781 -59.753906 107.84375 -58.640625 C 106.007812 -57.523438 104.109375 -55.753906 102.140625 -53.328125 L 65.8125 -9.234375 C 64.695312 -7.859375 63.46875 -6.332031 62.125 -4.65625 C 60.78125 -2.988281 59.566406 -1.566406 58.484375 -0.390625 C 57.410156 0.785156 56.644531 1.375 56.1875 1.375 C 55.269531 1.375 54.660156 0.960938 54.359375 0.140625 C 54.066406 -0.671875 53.96875 -1.734375 54.0625 -3.046875 C 54.164062 -4.359375 54.363281 -5.71875 54.65625 -7.125 C 54.945312 -8.53125 55.191406 -9.820312 55.390625 -11 C 56.046875 -14.925781 56.734375 -19.015625 57.453125 -23.265625 C 58.171875 -27.523438 58.890625 -31.785156 59.609375 -36.046875 C 60.335938 -40.304688 61.03125 -44.398438 61.6875 -48.328125 L 29.265625 -9.53125 C 28.421875 -8.476562 27.539062 -7.328125 26.625 -6.078125 C 25.707031 -4.835938 24.835938 -3.644531 24.015625 -2.5 C 23.191406 -1.351562 22.46875 -0.421875 21.84375 0.296875 C 21.226562 1.015625 20.753906 1.375 20.421875 1.375 Z M 20.421875 1.375 "/></g></g></g><g fill="#ffffff" fill-opacity="1"><g transform="translate(384.952346, 88.392996)"><g><path d="M 6.484375 1.375 C 5.367188 1.375 4.453125 1.015625 3.734375 0.296875 C 3.015625 -0.421875 2.65625 -1.175781 2.65625 -1.96875 C 2.65625 -2.226562 2.671875 -2.488281 2.703125 -2.75 C 2.734375 -3.007812 2.816406 -3.269531 2.953125 -3.53125 C 5.628906 -8.96875 7.882812 -14.09375 9.71875 -18.90625 C 11.550781 -23.71875 13.191406 -27.925781 14.640625 -31.53125 C 14.898438 -32.3125 14.734375 -32.703125 14.140625 -32.703125 C 13.816406 -32.703125 13.175781 -32.519531 12.21875 -32.15625 C 11.269531 -31.800781 10.269531 -31.328125 9.21875 -30.734375 C 8.175781 -30.148438 7.265625 -29.5625 6.484375 -28.96875 C 6.148438 -28.707031 5.820312 -28.640625 5.5 -28.765625 C 5.175781 -28.898438 5.015625 -29.132812 5.015625 -29.46875 C 5.015625 -29.789062 5.257812 -30.265625 5.75 -30.890625 C 6.238281 -31.515625 6.925781 -32.21875 7.8125 -33 C 8.695312 -33.789062 9.757812 -34.625 11 -35.5 C 12.238281 -36.382812 13.59375 -37.269531 15.0625 -38.15625 C 16.539062 -39.039062 18.097656 -39.84375 19.734375 -40.5625 C 20.328125 -40.820312 20.914062 -40.753906 21.5 -40.359375 C 22.09375 -39.972656 22.566406 -39.484375 22.921875 -38.890625 C 23.285156 -38.304688 23.40625 -37.847656 23.28125 -37.515625 L 11.296875 -9.140625 C 11.035156 -8.609375 10.851562 -8.097656 10.75 -7.609375 C 10.65625 -7.117188 10.609375 -6.675781 10.609375 -6.28125 C 10.609375 -5.820312 10.785156 -5.507812 11.140625 -5.34375 C 11.503906 -5.1875 11.847656 -5.109375 12.171875 -5.109375 C 13.085938 -5.109375 14.132812 -5.550781 15.3125 -6.4375 C 16.5 -7.320312 17.757812 -8.398438 19.09375 -9.671875 C 20.4375 -10.953125 21.734375 -12.210938 22.984375 -13.453125 C 23.109375 -13.585938 23.238281 -13.65625 23.375 -13.65625 C 23.507812 -13.65625 23.640625 -13.601562 23.765625 -13.5 C 23.898438 -13.40625 23.96875 -13.289062 23.96875 -13.15625 C 23.96875 -12.113281 23.34375 -10.789062 22.09375 -9.1875 C 20.851562 -7.582031 19.300781 -5.976562 17.4375 -4.375 C 15.570312 -2.769531 13.65625 -1.410156 11.6875 -0.296875 C 9.71875 0.816406 7.984375 1.375 6.484375 1.375 Z M 26.328125 -50.390625 C 25.335938 -50.390625 24.515625 -50.78125 23.859375 -51.5625 C 23.210938 -52.351562 22.890625 -53.238281 22.890625 -54.21875 C 22.890625 -55.789062 23.410156 -57.179688 24.453125 -58.390625 C 25.503906 -59.597656 26.816406 -60.203125 28.390625 -60.203125 C 29.429688 -60.203125 30.25 -59.757812 30.84375 -58.875 C 31.4375 -58 31.734375 -57.035156 31.734375 -55.984375 C 31.734375 -54.546875 31.207031 -53.253906 30.15625 -52.109375 C 29.101562 -50.960938 27.828125 -50.390625 26.328125 -50.390625 Z M 26.328125 -50.390625 "/></g></g></g><g clip-path="url(#9862e61342)"><g fill="#ffffff" fill-opacity="1"><g transform="translate(406.461371, 88.392996)"><g><path d="M 6.28125 1.375 C 5.757812 1.375 5.171875 1.160156 4.515625 0.734375 C 3.859375 0.304688 3.316406 -0.179688 2.890625 -0.734375 C 2.472656 -1.296875 2.265625 -1.804688 2.265625 -2.265625 C 2.265625 -3.367188 2.410156 -4.3125 2.703125 -5.09375 C 2.992188 -5.882812 3.304688 -6.773438 3.640625 -7.765625 L 12.96875 -33.984375 C 13.09375 -34.441406 13.039062 -34.75 12.8125 -34.90625 C 12.582031 -35.070312 12.304688 -35.15625 11.984375 -35.15625 L 8.046875 -35.359375 C 7.203125 -35.421875 6.695312 -35.597656 6.53125 -35.890625 C 6.363281 -36.191406 6.28125 -36.472656 6.28125 -36.734375 C 6.28125 -36.867188 6.441406 -37.113281 6.765625 -37.46875 C 7.097656 -37.832031 7.507812 -38.191406 8 -38.546875 C 8.488281 -38.910156 9.03125 -39.09375 9.625 -39.09375 L 13.15625 -39.09375 C 13.875 -39.09375 14.363281 -39.207031 14.625 -39.4375 C 14.894531 -39.664062 15.191406 -40.140625 15.515625 -40.859375 L 17.875 -45.671875 C 18.132812 -46.191406 18.625 -46.796875 19.34375 -47.484375 C 20.0625 -48.171875 20.796875 -48.773438 21.546875 -49.296875 C 22.304688 -49.828125 22.847656 -50.09375 23.171875 -50.09375 C 23.703125 -50.09375 24.03125 -49.734375 24.15625 -49.015625 C 24.289062 -48.296875 24.226562 -47.609375 23.96875 -46.953125 L 21.40625 -40.375 C 21.28125 -39.914062 21.332031 -39.617188 21.5625 -39.484375 C 21.789062 -39.347656 22.164062 -39.28125 22.6875 -39.28125 C 24 -39.28125 25.34375 -39.179688 26.71875 -38.984375 C 28.09375 -38.796875 29.207031 -38.632812 30.0625 -38.5 C 31.101562 -38.300781 31.738281 -38.085938 31.96875 -37.859375 C 32.195312 -37.628906 32.3125 -37.351562 32.3125 -37.03125 C 32.3125 -36.894531 32.179688 -36.679688 31.921875 -36.390625 C 31.660156 -36.097656 31.171875 -35.914062 30.453125 -35.84375 C 29.003906 -35.78125 27.625 -35.695312 26.3125 -35.59375 C 25.007812 -35.5 23.640625 -35.421875 22.203125 -35.359375 C 21.148438 -35.296875 20.410156 -35.128906 19.984375 -34.859375 C 19.554688 -34.597656 19.28125 -34.273438 19.15625 -33.890625 L 10.40625 -9.71875 C 10.144531 -8.9375 10.015625 -8.25 10.015625 -7.65625 C 10.015625 -7.070312 10.191406 -6.613281 10.546875 -6.28125 C 10.910156 -5.957031 11.453125 -5.796875 12.171875 -5.796875 C 13.085938 -5.796875 14.070312 -6.125 15.125 -6.78125 C 16.175781 -7.4375 17.191406 -8.1875 18.171875 -9.03125 C 19.148438 -9.882812 19.96875 -10.640625 20.625 -11.296875 C 21.34375 -12.015625 21.960938 -12.335938 22.484375 -12.265625 C 23.015625 -12.203125 23.28125 -11.976562 23.28125 -11.59375 C 23.28125 -11.132812 23.113281 -10.625 22.78125 -10.0625 C 22.457031 -9.507812 22.035156 -8.9375 21.515625 -8.34375 C 20.460938 -7.226562 19.363281 -6.179688 18.21875 -5.203125 C 17.070312 -4.222656 15.890625 -3.320312 14.671875 -2.5 C 13.460938 -1.6875 12.316406 -1 11.234375 -0.4375 C 10.160156 0.113281 9.195312 0.550781 8.34375 0.875 C 7.5 1.207031 6.8125 1.375 6.28125 1.375 Z M 6.28125 1.375 "/></g></g></g></g><g clip-path="url(#6a1a55bfda)"><path fill="#03a8e8" d="M 140.203125 65.742188 C 140.203125 65.804688 140.203125 65.875 140.199219 65.941406 C 140.191406 67.28125 140.085938 68.597656 139.882812 69.886719 C 138.9375 76.109375 135.882812 81.632812 131.472656 85.710938 L 131.46875 85.710938 C 126.613281 90.199219 120.125 92.945312 113 92.945312 C 109.511719 92.945312 106.175781 92.289062 103.117188 91.089844 C 102.738281 90.945312 102.363281 90.789062 101.992188 90.625 C 96.816406 88.332031 92.496094 84.476562 89.621094 79.648438 C 88.175781 77.222656 87.09375 74.550781 86.457031 71.714844 C 86.023438 69.789062 85.796875 67.789062 85.796875 65.742188 C 85.796875 65.019531 85.824219 64.308594 85.886719 63.605469 C 86.34375 57.640625 88.730469 52.214844 92.421875 47.953125 C 93.84375 46.3125 95.460938 44.839844 97.230469 43.578125 L 97.234375 43.574219 C 97.714844 43.234375 98.207031 42.902344 98.714844 42.59375 C 101.804688 40.683594 105.304688 39.367188 109.054688 38.824219 C 110.339844 38.632812 111.660156 38.539062 113 38.539062 C 116.191406 38.539062 119.265625 39.09375 122.109375 40.105469 C 126.710938 41.738281 130.734375 44.574219 133.816406 48.230469 C 137.804688 52.964844 140.203125 59.074219 140.203125 65.742188 " fill-opacity="1" fill-rule="nonzero"/></g><path fill="#70c573" d="M 116.632812 87.03125 C 116.632812 87.03125 115.152344 84.964844 115.316406 81.421875 C 115.480469 77.878906 115.152344 77.289062 112.847656 76.550781 C 110.546875 75.8125 108.242188 74.484375 107.914062 72.714844 C 107.585938 70.941406 109.558594 66.8125 109.558594 66.8125 C 109.558594 66.8125 112.191406 65.039062 114.492188 65.335938 C 116.796875 65.628906 120.746094 65.628906 122.554688 67.253906 C 124.363281 68.875 125.515625 72.566406 126.335938 72.714844 C 127.160156 72.863281 125.1875 79.207031 124.855469 80.242188 C 124.527344 81.273438 123.542969 85.40625 122.71875 87.03125 C 121.898438 88.652344 121.074219 90.128906 120.414062 90.128906 C 119.757812 90.128906 116.796875 90.425781 116.632812 87.03125 " fill-opacity="1" fill-rule="nonzero"/><path fill="#70c573" d="M 103.851562 86.691406 C 103.707031 87.390625 103.449219 89.246094 103.117188 91.089844 C 102.738281 90.945312 102.363281 90.789062 101.992188 90.625 C 96.816406 88.332031 92.496094 84.476562 89.621094 79.648438 C 88.175781 77.222656 87.09375 74.550781 86.457031 71.714844 C 87.460938 71.179688 88.71875 70.703125 89.953125 70.722656 C 92.65625 70.777344 92.996094 71.441406 95.300781 73.09375 C 97.601562 74.75 99.402344 78.878906 100.378906 78.949219 C 101.351562 79.011719 104.101562 85.453125 103.851562 86.691406 " fill-opacity="1" fill-rule="nonzero"/><g clip-path="url(#f295ce1871)"><path fill="#70c573" d="M 140.203125 65.742188 C 140.203125 65.804688 140.203125 65.875 140.199219 65.941406 C 140.191406 67.28125 140.085938 68.597656 139.882812 69.886719 C 138.664062 68.09375 137.34375 65.398438 136.671875 64.929688 C 135.636719 64.199219 131.847656 63.761719 133.226562 65.65625 C 134.605469 67.554688 135.1875 67.554688 135.1875 67.554688 C 135.1875 67.554688 132.535156 72.898438 130.640625 72.378906 C 128.746094 71.863281 124.953125 64.929688 124.953125 64.929688 C 122.710938 63.164062 127.019531 61.867188 127.019531 61.867188 C 127.019531 61.867188 128.398438 60.660156 126.332031 59.28125 C 124.261719 57.902344 122.710938 60.832031 121.332031 60.484375 C 119.957031 60.140625 119.609375 61.519531 119.175781 62.898438 C 118.746094 64.277344 117.488281 65.101562 117.195312 62.898438 C 116.898438 60.695312 113.75 62.039062 112.714844 62.039062 C 111.679688 62.039062 109.613281 65.65625 107.714844 65.65625 C 105.820312 65.65625 105.820312 63.074219 106.164062 61.867188 C 106.507812 60.660156 109.4375 59.453125 112.195312 59.28125 C 114.953125 59.109375 112.371094 56.695312 113.230469 56.226562 C 114.09375 55.753906 116.679688 56.523438 119.175781 57.558594 C 121.675781 58.59375 124.261719 56.179688 126.503906 56.226562 C 128.746094 56.273438 121.679688 54.453125 123.917969 52.730469 C 126.160156 51.007812 121.332031 49.453125 121.503906 47.558594 C 121.679688 45.660156 120.125 43.421875 120.125 41.355469 C 120.125 40.695312 120.859375 40.265625 122.109375 40.105469 C 126.710938 41.738281 130.734375 44.574219 133.816406 48.230469 C 137.804688 52.964844 140.203125 59.074219 140.203125 65.742188 " fill-opacity="1" fill-rule="nonzero"/></g><path fill="#70c573" d="M 101.695312 56.542969 C 101.695312 56.542969 102.691406 57.726562 103.464844 56.542969 C 104.234375 55.363281 104.34375 54.421875 103.863281 54.335938 C 103.378906 54.25 100.507812 56.054688 101.695312 56.542969 " fill-opacity="1" fill-rule="nonzero"/><path fill="#70c573" d="M 95.871094 56.542969 C 95.871094 56.542969 97.925781 56.019531 98.382812 54.992188 C 98.839844 53.964844 101.464844 54.421875 102.148438 53.394531 C 102.835938 52.367188 104.609375 52 105.035156 51.042969 C 105.460938 50.085938 105.925781 48.601562 104.152344 48.484375 C 102.378906 48.371094 100.632812 47.574219 100.648438 48.484375 C 100.667969 49.398438 100.210938 49.171875 98.613281 49.742188 C 97.015625 50.3125 95.300781 49.488281 95.300781 51.042969 C 95.300781 52.59375 95.757812 54.332031 95.757812 54.332031 C 95.757812 54.332031 94.84375 55.585938 95.871094 56.542969 " fill-opacity="1" fill-rule="nonzero"/><g clip-path="url(#9f473c38be)"><path fill="#70c573" d="M 109.054688 38.824219 C 109.054688 38.824219 105.992188 42.90625 105.425781 43.015625 C 104.855469 43.125 103.105469 44.324219 102.78125 45.527344 C 102.457031 46.726562 100.164062 47.488281 98.417969 46.726562 C 96.671875 45.960938 96.269531 45.121094 97.230469 43.578125 L 97.234375 43.574219 C 97.714844 43.234375 98.207031 42.902344 98.714844 42.59375 C 101.804688 40.683594 105.304688 39.367188 109.054688 38.824219 " fill-opacity="1" fill-rule="nonzero"/></g><g clip-path="url(#97765a3186)"><path fill="#70c573" d="M 91.90625 54.875 C 91.617188 55.746094 91.6875 56.765625 90.746094 57.066406 C 89.796875 57.375 90.160156 58.507812 89.507812 59.960938 C 88.917969 61.273438 86.390625 63.226562 85.886719 63.605469 C 86.34375 57.640625 88.730469 52.214844 92.421875 47.953125 C 92.804688 49.117188 92.65625 51.042969 92.996094 51.671875 C 93.507812 52.617188 92.199219 54 91.90625 54.875 " fill-opacity="1" fill-rule="nonzero"/></g><g clip-path="url(#b53e77eca8)"><path fill="#ea596e" d="M 284.789062 82.597656 C 284.796875 83.128906 284.65625 83.820312 284.515625 84.390625 C 283.519531 88.398438 279.09375 92.898438 272.863281 92.488281 C 267.214844 92.121094 262.617188 89.421875 262.617188 85.632812 C 262.617188 81.847656 267.203125 78.78125 272.863281 78.78125 C 278.519531 78.78125 284.753906 78.8125 284.789062 82.597656 Z M 284.789062 82.597656 " fill-opacity="1" fill-rule="nonzero"/></g><path fill="#dd2e44" d="M 272.863281 79.414062 C 269.824219 79.414062 262.886719 80.253906 261.296875 80.253906 C 258.484375 80.253906 256.203125 82.007812 256.203125 84.179688 C 256.203125 85.222656 256.738281 86.164062 257.597656 86.867188 C 257.597656 86.867188 259.488281 88.753906 262.890625 87.847656 C 264.378906 87.453125 266.800781 84.507812 271.0625 84.042969 C 273.183594 83.808594 277.164062 85.445312 284.152344 85.484375 C 284.453125 84.839844 284.515625 84.394531 284.515625 84.394531 C 284.515625 80.605469 278.519531 79.414062 272.863281 79.414062 Z M 272.863281 79.414062 " fill-opacity="1" fill-rule="nonzero"/><g clip-path="url(#69106b44d4)"><path fill="#f4abba" d="M 284.515625 84.390625 C 284.515625 84.390625 288.613281 83.5625 291.164062 80.222656 C 294.136719 76.328125 293.746094 72.160156 293.746094 72.160156 C 296.757812 66.554688 292.804688 61.296875 292.804688 61.296875 C 292.414062 55.375 288.738281 52.921875 288.738281 52.921875 C 286.351562 47.273438 281.074219 45.757812 281.074219 45.757812 C 276.929688 40.929688 269.578125 41.082031 269.578125 41.082031 C 269.578125 41.082031 262.6875 38.570312 253.230469 41.394531 C 251.667969 41.863281 246.425781 42.953125 242.59375 45.289062 C 230.511719 52.65625 229.597656 64.140625 229.769531 66.007812 C 230.703125 76.445312 238.058594 78.3125 242.75 79.402344 C 243.84375 82.363281 247.871094 87.816406 255.105469 85.792969 C 264.023438 84.234375 267.777344 81.585938 269.96875 81.585938 C 272.160156 81.585938 278.257812 83.921875 284.515625 84.390625 Z M 284.515625 84.390625 " fill-opacity="1" fill-rule="nonzero"/></g><path fill="#ea596e" d="M 261.964844 67.609375 C 266.335938 65.261719 268.703125 65.480469 270.796875 65.667969 C 271.460938 65.730469 272.089844 65.777344 272.726562 65.773438 C 276.449219 65.6875 279.464844 64.125 280.800781 62.613281 C 281.140625 62.222656 281.101562 61.636719 280.714844 61.292969 C 280.328125 60.953125 279.734375 60.988281 279.390625 61.378906 C 278.359375 62.542969 275.824219 63.832031 272.683594 63.902344 C 272.117188 63.917969 271.554688 63.863281 270.96875 63.808594 C 268.726562 63.601562 265.941406 63.347656 261.074219 65.964844 C 259.824219 66.632812 258.113281 66.882812 256.257812 67.070312 C 252.136719 61.140625 254.617188 55.980469 255.328125 54.75 C 255.394531 54.753906 255.464844 54.773438 255.535156 54.773438 C 256.285156 54.773438 257.039062 54.589844 257.722656 54.207031 C 258.175781 53.953125 258.332031 53.382812 258.078125 52.933594 C 257.824219 52.484375 257.25 52.324219 256.800781 52.578125 C 255.597656 53.257812 254.019531 52.867188 253.269531 51.707031 C 252.992188 51.269531 252.410156 51.144531 251.976562 51.425781 C 251.539062 51.703125 251.414062 52.28125 251.691406 52.714844 C 252.136719 53.40625 252.765625 53.929688 253.472656 54.28125 C 252.492188 56.257812 250.636719 61.457031 254.171875 67.273438 C 251.683594 67.515625 249.195312 67.867188 247.246094 69.117188 C 245.988281 69.925781 244.703125 71.105469 243.722656 72.464844 C 242.542969 72.261719 238.21875 71.203125 237.464844 66.425781 C 237.933594 66.0625 238.3125 65.582031 238.546875 64.992188 C 238.738281 64.511719 238.5 63.96875 238.019531 63.78125 C 237.535156 63.589844 236.992188 63.824219 236.800781 64.304688 C 236.632812 64.726562 236.332031 65.03125 235.949219 65.167969 C 235.570312 65.300781 235.140625 65.257812 234.742188 65.035156 C 234.285156 64.785156 233.71875 64.949219 233.464844 65.398438 C 233.214844 65.847656 233.378906 66.417969 233.828125 66.667969 C 234.363281 66.964844 234.933594 67.113281 235.5 67.113281 C 235.570312 67.113281 235.636719 67.082031 235.703125 67.078125 C 236.597656 71.589844 240.179688 73.570312 242.710938 74.171875 C 242.378906 74.898438 242.15625 75.644531 242.089844 76.398438 C 242.042969 76.910156 242.425781 77.367188 242.941406 77.414062 L 243.027344 77.417969 C 243.507812 77.417969 243.917969 77.050781 243.960938 76.5625 C 244.164062 74.296875 246.335938 71.929688 248.265625 70.683594 C 250.074219 69.523438 252.722656 69.277344 255.285156 69.042969 C 257.773438 68.816406 260.125 68.597656 261.964844 67.609375 Z M 286.117188 64.796875 C 285.871094 65.25 286.039062 65.816406 286.492188 66.0625 C 286.632812 66.140625 286.789062 66.179688 286.941406 66.179688 C 287.273438 66.179688 287.59375 66.003906 287.765625 65.695312 C 287.800781 65.628906 291.222656 59.246094 284.816406 54.957031 C 284.386719 54.671875 283.804688 54.78125 283.511719 55.210938 C 283.222656 55.636719 283.339844 56.21875 283.769531 56.507812 C 288.730469 59.832031 286.226562 64.59375 286.117188 64.796875 Z M 247.210938 49.703125 C 247.503906 49.703125 247.789062 49.570312 247.972656 49.3125 C 250.695312 45.542969 254.460938 46.832031 254.621094 46.894531 C 255.109375 47.070312 255.644531 46.824219 255.824219 46.339844 C 256.003906 45.855469 255.757812 45.320312 255.269531 45.140625 C 253.46875 44.472656 249.304688 44.265625 246.449219 48.222656 C 246.144531 48.640625 246.242188 49.226562 246.660156 49.527344 C 246.828125 49.648438 247.019531 49.703125 247.210938 49.703125 Z M 271.746094 46.171875 C 275.925781 45.835938 277.824219 48.851562 277.910156 48.992188 C 278.085938 49.289062 278.398438 49.453125 278.71875 49.453125 C 278.878906 49.453125 279.046875 49.410156 279.195312 49.324219 C 279.640625 49.0625 279.789062 48.488281 279.53125 48.042969 C 279.429688 47.875 277.015625 43.898438 271.601562 44.308594 C 271.085938 44.347656 270.699219 44.800781 270.738281 45.316406 C 270.78125 45.828125 271.246094 46.21875 271.746094 46.171875 Z M 288.921875 73.488281 C 288.460938 73.460938 287.953125 73.824219 287.910156 74.339844 C 287.90625 74.375 287.609375 77.554688 284.324219 78.628906 C 283.832031 78.789062 283.566406 79.316406 283.730469 79.808594 C 283.855469 80.203125 284.226562 80.453125 284.621094 80.453125 C 284.71875 80.453125 284.816406 80.4375 284.914062 80.40625 C 289.367188 78.953125 289.765625 74.679688 289.78125 74.496094 C 289.820312 73.980469 289.4375 73.527344 288.921875 73.488281 Z M 288.921875 73.488281 " fill-opacity="1" fill-rule="nonzero"/><path fill="#ea596e" d="M 242.460938 64.402344 C 242.328125 64.902344 242.625 65.414062 243.125 65.550781 C 243.207031 65.570312 243.289062 65.582031 243.371094 65.582031 C 243.785156 65.582031 244.160156 65.308594 244.273438 64.890625 C 244.628906 63.5625 246.015625 62.707031 247.375 62.996094 C 247.882812 63.097656 248.378906 62.777344 248.484375 62.269531 C 248.59375 61.765625 248.269531 61.269531 247.757812 61.164062 C 246.960938 60.996094 246.15625 61.074219 245.417969 61.324219 C 243.226562 57.597656 243.65625 53.921875 243.660156 53.882812 C 243.726562 53.371094 243.367188 52.902344 242.855469 52.832031 C 242.34375 52.769531 241.871094 53.121094 241.800781 53.628906 C 241.777344 53.8125 241.273438 57.960938 243.796875 62.257812 C 243.167969 62.820312 242.691406 63.554688 242.460938 64.402344 Z M 263.445312 59.785156 C 264.210938 59.082031 265.4375 59.09375 266.179688 59.816406 C 266.363281 59.992188 266.597656 60.078125 266.832031 60.078125 C 267.078125 60.078125 267.324219 59.984375 267.503906 59.792969 C 267.867188 59.425781 267.859375 58.832031 267.484375 58.472656 C 267.054688 58.054688 266.539062 57.777344 265.988281 57.601562 C 266.546875 55.703125 266.328125 54.859375 265.808594 53.28125 C 265.71875 53.007812 265.621094 52.699219 265.515625 52.351562 L 265.457031 52.164062 C 264.777344 49.90625 264.324219 48.414062 265.621094 46.3125 C 265.894531 45.871094 265.753906 45.296875 265.3125 45.027344 C 264.878906 44.757812 264.296875 44.890625 264.023438 45.332031 C 262.28125 48.152344 262.921875 50.261719 263.664062 52.707031 L 263.71875 52.890625 C 263.828125 53.253906 263.929688 53.574219 264.023438 53.859375 C 264.488281 55.28125 264.628906 55.757812 264.0625 57.476562 C 263.371094 57.605469 262.707031 57.917969 262.167969 58.421875 C 261.789062 58.769531 261.765625 59.363281 262.121094 59.742188 C 262.472656 60.121094 263.070312 60.136719 263.445312 59.785156 Z M 275.394531 54.207031 C 275.941406 54.207031 276.492188 54.09375 277.007812 53.847656 C 277.476562 53.628906 277.675781 53.070312 277.457031 52.605469 C 277.234375 52.136719 276.667969 51.941406 276.207031 52.15625 C 275.265625 52.597656 274.101562 52.214844 273.609375 51.304688 C 273.363281 50.847656 272.789062 50.679688 272.339844 50.921875 C 271.882812 51.164062 271.710938 51.730469 271.957031 52.1875 C 272.292969 52.8125 272.796875 53.308594 273.382812 53.652344 C 272.375 56.09375 272.945312 58.683594 273.414062 60.058594 C 273.546875 60.449219 273.910156 60.691406 274.304688 60.691406 C 274.402344 60.691406 274.503906 60.679688 274.605469 60.644531 C 275.097656 60.480469 275.359375 59.949219 275.191406 59.460938 C 274.875 58.53125 274.265625 56.179688 275.1875 54.179688 C 275.257812 54.183594 275.324219 54.207031 275.394531 54.207031 Z M 284.398438 71.832031 C 284.363281 71.320312 283.917969 70.914062 283.402344 70.960938 C 281.5 71.09375 279.878906 69.65625 279.746094 67.777344 C 279.710938 67.261719 279.25 66.878906 278.746094 66.90625 C 278.230469 66.941406 277.839844 67.390625 277.875 67.902344 C 277.949219 69.007812 278.375 70 279.015625 70.808594 C 277.507812 72.578125 275.53125 73.082031 274.429688 73.210938 C 273.453125 73.328125 272.601562 73.226562 271.617188 73.113281 C 270.714844 73.007812 269.691406 72.890625 268.429688 72.929688 L 268.417969 72.929688 C 268.382812 72.394531 268.253906 71.617188 267.847656 70.96875 C 267.574219 70.53125 266.992188 70.398438 266.554688 70.671875 C 266.117188 70.945312 265.980469 71.523438 266.257812 71.960938 C 266.507812 72.363281 266.554688 73.003906 266.554688 73.316406 C 265.609375 73.652344 264.789062 74.152344 264.050781 74.632812 C 262.730469 75.488281 261.6875 76.164062 260.121094 75.8125 C 258.703125 75.488281 257.28125 75.425781 256.074219 75.59375 C 255.886719 75.121094 255.589844 74.5625 255.132812 74.128906 C 254.753906 73.773438 254.164062 73.789062 253.804688 74.167969 C 253.449219 74.542969 253.464844 75.132812 253.84375 75.488281 C 254.003906 75.640625 254.132812 75.863281 254.234375 76.082031 C 252.164062 76.929688 251.128906 78.347656 251.078125 78.417969 C 250.777344 78.835938 250.878906 79.414062 251.292969 79.714844 C 251.460938 79.832031 251.652344 79.890625 251.84375 79.890625 C 252.132812 79.890625 252.421875 79.757812 252.605469 79.507812 C 252.613281 79.492188 253.644531 78.121094 255.675781 77.5625 C 256.730469 77.277344 258.234375 77.300781 259.707031 77.632812 C 260.117188 77.726562 260.496094 77.757812 260.867188 77.765625 C 261.042969 78.171875 261.109375 78.65625 261.117188 78.835938 C 261.148438 79.332031 261.5625 79.71875 262.054688 79.71875 L 262.105469 79.714844 C 262.621094 79.6875 263.019531 79.253906 262.996094 78.738281 C 262.988281 78.644531 262.949219 78.089844 262.75 77.457031 C 263.617188 77.144531 264.367188 76.65625 265.074219 76.199219 C 266.148438 75.5 267.164062 74.839844 268.492188 74.796875 C 269.605469 74.757812 270.519531 74.863281 271.402344 74.96875 C 272.292969 75.070312 273.167969 75.136719 274.132812 75.082031 C 274.304688 75.554688 274.289062 76.1875 274.265625 76.398438 C 274.203125 76.90625 274.566406 77.375 275.078125 77.441406 C 275.117188 77.449219 275.15625 77.449219 275.199219 77.449219 C 275.660156 77.449219 276.066406 77.109375 276.125 76.636719 C 276.140625 76.519531 276.238281 75.679688 276.015625 74.804688 C 277.363281 74.441406 279.035156 73.660156 280.417969 72.054688 C 281.226562 72.546875 282.171875 72.835938 283.175781 72.835938 C 283.292969 72.835938 283.410156 72.832031 283.527344 72.824219 C 284.042969 72.792969 284.433594 72.347656 284.398438 71.832031 Z M 284.398438 71.832031 " fill-opacity="1" fill-rule="nonzero"/></svg>